HIERARCHY
ROOT Hips
{
  OFFSET 263.056 91.6644 -274.608
  CHANNELS 6 Xposition Yposition Zposition Zrotation Xrotation Yrotation
  JOINT LeftUpLeg
  {
    OFFSET 8.64259 1.95398 -2.38835
    CHANNELS 3 Zrotation Xrotation Yrotation
    JOINT LeftLeg
    {
      OFFSET 43.7702 0 0
      CHANNELS 3 Zrotation Xrotation Yrotation
      JOINT LeftFoot
      {
        OFFSET 40.6238 0 0
        CHANNELS 3 Zrotation Xrotation Yrotation
        JOINT LeftToeBase
        {
          OFFSET 12.7242 0 0
          CHANNELS 3 Zrotation Xrotation Yrotation
          End Site
          {
            OFFSET 0 0 0
          }
        }
      }
    }
  }
  JOINT RightUpLeg
  {
    OFFSET -8.2249 1.95398 -2.59336
    CHANNELS 3 Zrotation Xrotation Yrotation
    JOINT RightLeg
    {
      OFFSET 43.5653 0 0
      CHANNELS 3 Zrotation Xrotation Yrotation
      JOINT RightFoot
      {
        OFFSET 40.6238 0 0
        CHANNELS 3 Zrotation Xrotation Yrotation
        JOINT RightToeBase
        {
          OFFSET 12.7242 0 0
          CHANNELS 3 Zrotation Xrotation Yrotation
          End Site
          {
            OFFSET 0 0 0
          }
        }
      }
    }
  }
  JOINT Spine
  {
    OFFSET 0.165834 0.87714 6.61349
    CHANNELS 3 Zrotation Xrotation Yrotation
    JOINT Spine1
    {
      OFFSET 7.38963 1.71661e-005 0
      CHANNELS 3 Zrotation Xrotation Yrotation
      JOINT Spine2
      {
        OFFSET 11.9445 1.14441e-005 0
        CHANNELS 3 Zrotation Xrotation Yrotation
        JOINT Spine3
        {
          OFFSET 14.7254 4.19617e-005 0
          CHANNELS 3 Zrotation Xrotation Yrotation
          JOINT Spine4
          {
            OFFSET 10.9679 0 0
            CHANNELS 3 Zrotation Xrotation Yrotation
            JOINT RightShoulder
            {
              OFFSET 2.46616 -1.6653 3.69651
              CHANNELS 3 Zrotation Xrotation Yrotation
              JOINT RightArm
              {
                OFFSET 13.0012 0 0
                CHANNELS 3 Zrotation Xrotation Yrotation
                JOINT RightForeArm
                {
                  OFFSET 28.7848 1.52588e-005 0
                  CHANNELS 3 Zrotation Xrotation Yrotation
                  JOINT RightHand
                  {
                    OFFSET 26.5688 1.52588e-005 0
                    CHANNELS 3 Zrotation Xrotation Yrotation
                    End Site
                    {
                      OFFSET 0 0 0
                    }
                  }
                }
              }
            }
            JOINT LeftShoulder
            {
              OFFSET 2.38034 -1.29275 -3.7523
              CHANNELS 3 Zrotation Xrotation Yrotation
              JOINT LeftArm
              {
                OFFSET 16.3182 6.10352e-005 0
                CHANNELS 3 Zrotation Xrotation Yrotation
                JOINT LeftForeArm
                {
                  OFFSET 27.0901 0 0
                  CHANNELS 3 Zrotation Xrotation Yrotation
                  JOINT LeftHand
                  {
                    OFFSET 24.5451 1.52588e-005 0
                    CHANNELS 3 Zrotation Xrotation Yrotation
                    End Site
                    {
                      OFFSET 0 0 0
                    }
                  }
                }
              }
            }
            JOINT Neck
            {
              OFFSET 5.0226 -0.0266342 0
              CHANNELS 3 Zrotation Xrotation Yrotation
              JOINT Head
              {
                OFFSET 6.69364 2.86102e-005 0
                CHANNELS 3 Zrotation Xrotation Yrotation
                End Site
                {
                  OFFSET 0 0 0
                }
              }
            }
          }
        }
      }
    }
  }
}
MOTION
Frames:	7
Frame Time:	0.0416667
-142.729 88.9654 -128.981 98.7096 -53.7445 92.1507 -173.711 29.1153 84.4373 -40.0109 20.5617 -2.9214 59.5562 3.87611 12.4719 33.085 5.25983 -17.6882 178.675 6.5967 84.6768 -77.8214 7.00285 -6.42287 35.1713 3.68133 4.26561 25.5554 -0.409102 1.92301 0.515135 7.47103 -88.6938 11.905 1.63936 2.42739 0.232935 1.74459 2.35291 -22.2866 0.834396 2.80757 -2.27397 0.83438 2.80757 76.5239 -51.6809 -120.244 28.7148 -17.0032 13.3902 -8.96169 -18.7382 -42.9936 0.43212 -0.103157 5.42323 -104.539 -43.5211 54.5544 -26.3063 0.239634 5.1959 1.89283 -4.03324 -35.8581 12.6202 0.718863 1.88735 14.1557 -4.11482 -3.25838 -4.89333 -3.12602 -1.78378 
-135.74 92.6321 -123.056 98.3716 -55.4063 96.1367 -173.945 22.2768 87.9428 -37.5665 21.7719 -1.90571 58.6678 2.58687 11.9398 40.0247 11.2095 -13.7295 -179.252 22.0868 91.1176 -91.8228 10.6256 -5.60557 37.7583 1.7162 2.20457 27.0855 -0.43239 4.21571 0.263375 7.46724 -89.1975 11.9311 0.901884 1.50325 0.259646 0.967164 1.46212 -22.2692 0.408462 1.70475 -2.2566 0.408473 1.70475 76.0125 -51.8251 -120.911 29.3699 -17.9603 19.1565 -13.5515 -24.0795 -44.3997 2.88339 -0.0546747 5.39011 -103.028 -42.7054 56.456 -25.0265 -3.20083 1.96058 8.70742 1.22346 -55.2065 17.9931 1.88267 6.58299 13.7539 -1.87202 -2.60981 -3.93293 -1.13695 -1.96601 
-129.504 97.8207 -118.112 105.016 -53.8122 104.175 -175.667 10.7068 90.0586 -29.9177 22.0314 0.580547 47.6285 -8.03815 2.95037 42.9967 14.1719 -11.225 175.939 30.798 94.7422 -98.0527 16.0281 -4.26247 46.7624 -1.28557 -0.626363 32.1049 0.0666907 4.63788 -0.130445 8.00833 -89.603 10.8567 -0.0760833 0.798656 -0.814502 -0.0409003 0.801226 -23.3477 -0.312593 0.738874 -3.3351 -0.312619 0.738862 75.9399 -51.456 -121.178 29.979 -16.0509 25.1215 -11.4995 -22.0236 -42.9186 -2.89104 -0.424071 4.22732 -101.191 -41.4087 58.6933 -24.1783 -5.3267 2.00779 10.4876 0.199462 -72.4804 24.0678 2.50967 6.6373 10.2379 0.0214772 -1.48349 -0.816036 0.340511 -0.819717 
-123.764 102.284 -112.469 106.086 -48.5539 106.595 -176.989 6.85048 91.6774 -28.9838 22.1476 1.79455 38.4241 -13.9258 -6.3086 29.5941 0.503042 3.74092 169.368 37.1885 98.19 -99.1782 9.06128 -2.65943 50.0755 -0.466308 -0.0636923 37.005 0.56996 7.73656 -0.642258 8.23617 -89.8697 10.4033 -1.21962 0.366654 -1.26713 -1.20233 0.419984 -23.8068 -1.27342 -0.0168946 -3.79418 -1.27344 -0.0168996 77.0967 -51.2842 -119.594 31.2546 -11.7112 32.1018 -9.18969 -15.8818 -43.5347 -3.02269 -0.355131 2.26798 -98.2411 -38.3415 62.0528 -23.4788 -3.1186 0.480228 12.1691 -3.0894 -83.9493 26.059 2.895 7.39666 3.73815 0.147889 -1.63221 4.01762 0.40817 -0.198919 
-118.249 104.985 -107.04 107.441 -45.8837 108.306 -175.554 4.66746 92.6438 -23.6959 20.6624 1.22472 40.6973 -11.616 -4.64932 32.5774 4.18434 2.03817 168.677 40.922 99.9384 -95.9696 2.50091 -2.09812 51.4166 0.406051 0.513761 40.3233 1.03301 9.09982 -0.756192 8.32345 -90.0126 10.2283 -1.51242 0.104061 -1.44174 -1.50638 0.170537 -23.9838 -1.47375 -0.355387 -3.9711 -1.47376 -0.355399 79.5341 -48.884 -117.039 34.0549 -7.06598 39.1441 -7.31566 -10.5524 -44.6666 -1.02712 -0.203641 -0.0848524 -95.1487 -34.9798 65.8492 -22.5085 -1.35655 -2.28876 15.9554 -1.51583 -93.5872 16.7691 1.76575 6.55659 -0.930226 -0.429364 -2.60914 7.22653 -0.059753 0.20697 
-112.947 105.583 -101.19 107.826 -43.3802 108.244 -173.327 1.62402 92.725 -8.6344 18.3662 0.309442 40.4075 -12.1978 -5.51797 41.9214 14.7521 1.21445 169.73 41.8825 99.7407 -90.2582 2.43969 -1.57246 56.5412 -0.976643 -0.527649 33.0561 0.21126 2.04791 -0.877838 8.39172 -89.9343 10.0933 -1.71933 0.274201 -1.57653 -1.70558 0.349618 -24.1207 -1.72223 -0.25537 -4.10808 -1.72221 -0.255365 79.8377 -48.8087 -116.616 34.1756 -4.59301 43.8811 -7.15051 -9.3618 -44.2128 -0.278111 -0.151498 0.968583 -94.0177 -32.9599 67.0127 -17.4922 -1.17403 -5.26042 14.386 -5.44562 -100.946 14.4872 1.4137 5.7542 -2.77969 -1.23216 -4.64034 7.68084 -0.6569 0.237778 
-107.084 103.455 -95.1764 106.208 -40.1731 107.338 -173.192 5.71674 92.6121 -7.64728 13.8518 0.351252 44.3169 -11.6177 -2.69902 41.2239 14.4817 4.81884 170.683 41.5065 97.9342 -81.5173 5.52161 -0.363641 58.7851 -1.67225 -0.964003 40.1032 0.799594 2.87037 -1.12586 8.29485 -89.9884 10.2881 -2.23775 0.215729 -1.38099 -2.2261 0.314052 -23.9313 -2.19909 -0.46712 -3.91863 -2.19909 -0.467123 79.8478 -49.0932 -116.485 33.1945 -4.24167 46.4196 -7.39971 -11.1276 -40.6 -0.911169 -0.202189 0.454789 -94.3696 -33.6509 66.6684 -10.9163 -3.70169 -8.33477 13.2287 -6.5178 -107.012 12.7185 1.21099 5.34038 -4.19478 -1.78118 -5.87674 7.61656 -1.04549 1.13767 
